<?xml version="1.0" encoding="UTF-8"?>
<svg width="18px" height="18px" viewBox="0 0 18 18" version="1.1" xmlns="http://www.w3.org/2000/svg" xmlns:xlink="http://www.w3.org/1999/xlink">
    <title>ic_Check</title>
    <g id="Page-1" stroke="none" stroke-width="1" fill="none" fill-rule="evenodd">
        <g id="Add-service-Provider-_Step1" transform="translate(-719.000000, -436.000000)" fill-rule="nonzero">
            <g id="Contact-info-" transform="translate(287.000000, 167.000000)">
                <g id="Left-Icon-Copy-3" transform="translate(38.000000, 236.000000)">
                    <g id="ic_Check" transform="translate(394.000000, 33.000000)">
                        <path d="M9,0 C4.03720095,0 0,4.03720095 0,9 C0,13.9627991 4.03720095,18 9,18 C13.9627991,18 18,13.9627991 18,9 C18,4.03720095 13.9627991,0 9,0 Z" id="Path" fill="#8A2377"></path>
                        <path d="M13.5615234,7.09277344 L8.68647765,11.9676819 C8.54022217,12.1139374 8.3482361,12.1875458 8.15625,12.1875458 C7.9642639,12.1875458 7.77227783,12.1139374 7.62602235,11.9676819 L5.18856813,9.53022765 C4.89523317,9.23703005 4.89523317,8.76296995 5.18856813,8.46977235 C5.48176574,8.17643739 5.95568848,8.17643739 6.24902344,8.46977235 L8.15625,10.3769989 L12.5010681,6.03231813 C12.7942657,5.73898317 13.2681885,5.73898317 13.5615234,6.03231813 C13.8547211,6.32551574 13.8547211,6.79943848 13.5615234,7.09277344 Z" id="Path" fill="#FAFAFA"></path>
                    </g>
                </g>
            </g>
        </g>
    </g>
</svg>