<?xml version="1.0" encoding="UTF-8"?>
<svg width="40px" height="46px" viewBox="0 0 40 46" version="1.1" xmlns="http://www.w3.org/2000/svg" xmlns:xlink="http://www.w3.org/1999/xlink">
    <title>ic_doc</title>
    <g id="Page-1" stroke="none" stroke-width="1" fill="none" fill-rule="evenodd">
        <g id="Edit-service-Provider-v3-Step3" transform="translate(-377.000000, -333.000000)" fill-rule="nonzero">
            <g id="Verification-Documents" transform="translate(327.000000, 261.000000)">
                <g id="Group-5" transform="translate(1.000000, 46.000000)">
                    <g id="ic_doc" transform="translate(49.000000, 26.000000)">
                        <path d="M8.57142857,0 C7,0 5.71428571,1.29375 5.71428571,2.875 L5.71428571,43.125 C5.71428571,44.70625 7,46 8.57142857,46 L37.1428571,46 C38.7142857,46 40,44.70625 40,43.125 L40,11.5 L28.5714286,0 L8.57142857,0 Z" id="Path" fill="#E2E5E7"></path>
                        <path d="M31.4285714,11.5 L40,11.5 L28.5714286,0 L28.5714286,8.625 C28.5714286,10.20625 29.8571429,11.5 31.4285714,11.5 Z" id="Path" fill="#B0B7BD"></path>
                        <polygon id="Path" fill="#CAD1D8" points="40 20.125 31.4285714 11.5 40 11.5"></polygon>
                        <path d="M34.2857143,37.375 C34.2857143,38.165625 33.6428571,38.8125 32.8571429,38.8125 L1.42857143,38.8125 C0.642857143,38.8125 0,38.165625 0,37.375 L0,23 C0,22.209375 0.642857143,21.5625 1.42857143,21.5625 L32.8571429,21.5625 C33.6428571,21.5625 34.2857143,22.209375 34.2857143,23 L34.2857143,37.375 Z" id="Path" fill="#50BEE8"></path>
                        <g id="Group" transform="translate(4.620000, 26.258813)" fill="#FFFFFF">
                            <path d="M0.788571429,8.2411875 C0.411428571,8.2411875 0,8.03275 0,7.5281875 L0,1.0005 C0,0.5865 0.411428571,0.2875 0.788571429,0.2875 L3.40428571,0.2875 C8.62428571,0.2875 8.50857143,8.2411875 3.50571429,8.2411875 L0.788571429,8.2411875 L0.788571429,8.2411875 Z M1.50857143,1.6890625 L1.50857143,6.8381875 L3.40428571,6.8381875 C6.48857143,6.8381875 6.62428571,1.6890625 3.40428571,1.6890625 L1.50857143,1.6890625 Z" id="Shape"></path>
                            <path d="M12.88,8.3561875 C10.7671429,8.4481875 8.57285714,7.0336875 8.57285714,4.217625 C8.57285714,1.3900625 10.7657143,0 12.88,0 C14.8785714,0.1020625 16.9685714,1.4935625 16.9685714,4.217625 C16.9685714,6.943125 14.8785714,8.3561875 12.88,8.3561875 Z M12.7542857,1.495 C11.4742857,1.495 10.0814286,2.4035 10.0814286,4.2190625 C10.0814286,6.0245625 11.4757143,6.9445625 12.7542857,6.9445625 C14.0685714,6.9445625 15.4728571,6.0245625 15.4728571,4.2190625 C15.4728571,2.4020625 14.0685714,1.495 12.7542857,1.495 Z" id="Shape"></path>
                            <path d="M18.3128571,4.206125 C18.3128571,1.9880625 19.6957143,0.0805 22.3228571,0.0805 C23.3171429,0.0805 24.1057143,0.3795 24.9385714,1.104 C25.2471429,1.3900625 25.2814286,1.8960625 24.9728571,2.2180625 C24.6642857,2.492625 24.1957143,2.4595625 23.9214286,2.1835625 C23.4542857,1.6890625 22.9742857,1.5525 22.3228571,1.5525 C20.5642857,1.5525 19.72,2.806 19.72,4.2075625 C19.72,5.6335625 20.5528571,6.943125 22.3228571,6.943125 C22.9742857,6.943125 23.58,6.6771875 24.1057143,6.207125 C24.4585714,5.931125 24.95,6.0676875 25.1557143,6.345125 C25.3385714,6.598125 25.4285714,7.023625 25.03,7.4246875 C24.23,8.173625 23.2714286,8.323125 22.3214286,8.323125 C19.5585714,8.323125 18.3128571,6.4241875 18.3128571,4.206125 Z" id="Path"></path>
                        </g>
                        <path d="M32.8571429,38.8125 L5.71428571,38.8125 L5.71428571,40.25 L32.8571429,40.25 C33.6428571,40.25 34.2857143,39.603125 34.2857143,38.8125 L34.2857143,37.375 C34.2857143,38.165625 33.6428571,38.8125 32.8571429,38.8125 Z" id="Path" fill="#CAD1D8"></path>
                    </g>
                </g>
            </g>
        </g>
    </g>
</svg>