<?xml version="1.0" encoding="UTF-8"?>
<svg width="17px" height="16px" viewBox="0 0 17 16" version="1.1" xmlns="http://www.w3.org/2000/svg" xmlns:xlink="http://www.w3.org/1999/xlink">
    <title>ic_Log</title>
    <defs>
        <path d="M13.9333333,5.06666667 C13.8666667,5 13.8666667,4.93333333 13.8,4.86666667 L9.8,0.866666667 C9.73333333,0.8 9.66666667,0.733333333 9.6,0.733333333 C9.53333333,0.666666667 9.4,0.666666667 9.33333333,0.666666667 L4,0.666666667 C2.86666667,0.666666667 2,1.53333333 2,2.66666667 L2,13.3333333 C2,14.4666667 2.86666667,15.3333333 4,15.3333333 L12,15.3333333 C13.1333333,15.3333333 14,14.4666667 14,13.3333333 L14,5.33333333 C14,5.26666667 14,5.13333333 13.9333333,5.06666667 Z M10,2.93333333 L11.7333333,4.66666667 L10,4.66666667 L10,2.93333333 Z M12,14 L4,14 C3.6,14 3.33333333,13.7333333 3.33333333,13.3333333 L3.33333333,2.66666667 C3.33333333,2.26666667 3.6,2 4,2 L8.66666667,2 L8.66666667,5.33333333 C8.66666667,5.73333333 8.93333333,6 9.33333333,6 L12.6666667,6 L12.6666667,13.3333333 C12.6666667,13.7333333 12.4,14 12,14 Z M11.3333333,8.66666667 C11.3333333,9.06666667 11.0666667,9.33333333 10.6666667,9.33333333 L5.33333333,9.33333333 C4.93333333,9.33333333 4.66666667,9.06666667 4.66666667,8.66666667 C4.66666667,8.26666667 4.93333333,8 5.33333333,8 L10.6666667,8 C11.0666667,8 11.3333333,8.26666667 11.3333333,8.66666667 Z M11.3333333,11.3333333 C11.3333333,11.7333333 11.0666667,12 10.6666667,12 L5.33333333,12 C4.93333333,12 4.66666667,11.7333333 4.66666667,11.3333333 C4.66666667,10.9333333 4.93333333,10.6666667 5.33333333,10.6666667 L10.6666667,10.6666667 C11.0666667,10.6666667 11.3333333,10.9333333 11.3333333,11.3333333 Z M4.66666667,6 C4.66666667,5.6 4.93333333,5.33333333 5.33333333,5.33333333 L6.66666667,5.33333333 C7.06666667,5.33333333 7.33333333,5.6 7.33333333,6 C7.33333333,6.4 7.06666667,6.66666667 6.66666667,6.66666667 L5.33333333,6.66666667 C4.93333333,6.66666667 4.66666667,6.4 4.66666667,6 Z" id="path-1"></path>
    </defs>
    <g id="Page-1" stroke="none" stroke-width="1" fill="none" fill-rule="evenodd">
        <g id="02.16.Pending-Orders-_All" transform="translate(-1359.000000, -939.000000)">
            <g id="Group-16" transform="translate(286.000000, 465.000000)">
                <g id="Group-15" transform="translate(1042.137959, 13.000000)">
                    <g id="ic_Log" transform="translate(31.000000, 461.000000)">
                        <mask id="mask-2" fill="white">
                            <use xlink:href="#path-1"></use>
                        </mask>
                        <use id="Mask" fill="#000000" fill-rule="nonzero" xlink:href="#path-1"></use>
                        <g id="Icon-Color" mask="url(#mask-2)" fill="#5E5873">
                            <rect id="🎨-Icon-Color" x="0" y="0" width="16" height="16"></rect>
                        </g>
                    </g>
                </g>
            </g>
        </g>
    </g>
</svg>