<?xml version="1.0" encoding="UTF-8"?>
<svg width="24px" height="37px" viewBox="0 0 24 37" version="1.1" xmlns="http://www.w3.org/2000/svg" xmlns:xlink="http://www.w3.org/1999/xlink">
    <title>ic_man</title>
    <g id="Page-1" stroke="none" stroke-width="1" fill="none" fill-rule="evenodd">
        <g id="02.16.View-Pending-Order-_Details_Status_Add-Product_Product-view" transform="translate(-371.000000, -993.000000)" fill-rule="nonzero">
            <g id="Group-34-Copy-2" transform="translate(288.000000, 203.640000)">
                <g id="Group-33" transform="translate(59.000000, 52.000000)">
                    <g id="Service-provider-Gender-Copy" transform="translate(0.000000, 692.120000)">
                        <g id="ic_man" transform="translate(24.000000, 46.080000)">
                            <path d="M23.04,31.9026028 L23.04,34.9076602 C23.04,35.2459779 22.7721974,35.52 22.4415584,35.52 L0.598441558,35.52 C0.267802597,35.52 0,35.2459779 0,34.9076602 L0,31.9026028 C0,28.7498183 2.49774545,26.195596 5.57971948,26.1948306 C6.66888312,26.1940652 7.62788571,25.6207621 8.17994805,24.7512396 C8.73455377,23.8791147 8.6774026,23.1207318 8.6774026,22.5077797 L8.68862338,22.479459 C6.00311688,21.3420379 4.11428571,18.6347306 4.11428571,15.4758228 L4.11428571,15.2362449 C3.04793766,15.2362449 2.24415584,14.3739939 2.24415584,13.3578926 L2.24415584,10.1767874 C2.22021818,9.06921787 2.26958961,5.16325551 5.02690909,2.44370147 C8.23305974,-0.718268059 13.3138286,-0.459554502 16.9942442,1.23203413 C17.1139325,1.28714471 17.1101922,1.46242698 16.9890078,1.51371043 L16.0292571,1.91785469 C15.8856312,1.97832324 15.9163013,2.19493844 16.0704,2.21177778 L16.5364364,2.26306124 C18.7678753,2.50723172 20.8407273,3.74721977 22.1258805,5.81080482 C22.1602909,5.86668083 22.1505662,5.95164297 22.1064312,5.99986473 C21.3134961,6.85790584 20.8706494,7.99685783 20.8706494,9.18096988 L20.8706494,13.3578926 C20.8706494,14.3950431 20.0485403,15.2362449 19.0349299,15.2362449 L18.9257143,15.2362449 L18.9257143,15.4758228 C18.9257143,18.6347306 17.0368831,21.3420379 14.3513766,22.479459 L14.3625974,22.5077797 C14.3625974,23.1030505 14.3007335,23.8717666 14.8600519,24.7512396 C15.4121143,25.6207621 16.3711169,26.1940652 17.4602805,26.1948306 C20.5422545,26.195596 23.04,28.7498183 23.04,31.9026028 Z" id="Path" fill="#FFDFBA"></path>
                            <path d="M23.04,31.9026028 L23.04,34.9076602 C23.04,35.2458249 22.7720478,35.52 22.4415584,35.52 L0.598441558,35.52 C0.267952208,35.52 0,35.2458249 0,34.9076602 L0,31.9026028 C0,28.7498183 2.49811948,26.1959787 5.57934545,26.1948306 C6.66880831,26.1944479 7.62803532,25.6204559 8.17994805,24.7512396 C10.106481,26.4353271 12.9323969,26.4363221 14.8600519,24.7512396 C15.4118899,25.6204559 16.3711917,26.1944479 17.4606545,26.1948306 C20.5418805,26.1959787 23.04,28.7498183 23.04,31.9026028 L23.04,31.9026028 Z" id="Path" fill="#758291"></path>
                            <path d="M22.1255813,5.81118754 C22.1602909,5.866987 22.1505662,5.95148989 22.1062068,5.99955856 C21.3134961,6.85821201 20.8706494,7.99678129 20.8706494,9.18096988 L20.8706494,13.3578926 C20.8706494,14.3061007 20.1724925,15.2362449 18.9257143,15.2362449 L18.9257143,10.5082163 C18.9257143,8.47907541 17.3181506,6.83417768 15.3350649,6.83417768 L7.70493506,6.83417768 C5.72184935,6.83417768 4.11428571,8.47907541 4.11428571,10.5082163 L4.11428571,15.2362449 C3.04793766,15.2362449 2.24415584,14.3739939 2.24415584,13.3578926 L2.24415584,10.1767874 C2.22021818,9.06921787 2.26958961,5.16325551 5.02690909,2.44370147 C8.23283532,-0.718344601 13.3141278,-0.45947796 16.9939449,1.23226376 C17.1136332,1.2872978 17.1104914,1.4626566 16.9890826,1.51378697 L16.0292571,1.91808431 C15.8857808,1.97855287 15.9160021,2.19493844 16.0702504,2.21185432 L16.5364364,2.26306124 C18.7682494,2.50700209 20.8405777,3.74699014 22.1255813,5.81118754 Z" id="Path" fill="#42434D"></path>
                            <path d="M18.9257143,15.4758228 C18.9257143,19.6623899 15.6082535,23.0535275 11.52,23.0535275 C7.66813091,23.0535275 4.11428571,19.9894558 4.11428571,15.2362449 L4.11428571,10.5082163 C4.11428571,8.47907541 5.72184935,6.83417768 7.70493506,6.83417768 L15.3350649,6.83417768 C17.3181506,6.83417768 18.9257143,8.47907541 18.9257143,10.5082163 L18.9257143,15.4758228 Z" id="Path" fill="#FFEBD2"></path>
                            <path d="M17.5792208,34.218778 L15.7838961,34.218778 C15.4534068,34.218778 15.1854545,33.9446028 15.1854545,33.6064382 C15.1854545,33.2682736 15.4534068,32.9940984 15.7838961,32.9940984 L17.5792208,32.9940984 C17.9097101,32.9940984 18.1776623,33.2682736 18.1776623,33.6064382 C18.1776623,33.9446028 17.9097849,34.218778 17.5792208,34.218778 Z" id="Path" fill="#FFFFFF"></path>
                            <path d="M9.84316675,20.36903 C11.0607709,21.148462 10.1006462,23.0599571 8.76776727,22.5125254 C6.02735377,21.3870448 4.11428571,18.6544786 4.11428571,15.4758228 L4.11428571,10.5082163 C4.11428571,9.73636206 4.34692987,9.0200776 4.74429506,8.42871046 C5.2315761,7.70362362 6.35844156,8.02395387 6.35844156,8.9773669 L6.35844156,13.9449733 C6.35844156,16.739539 7.79410286,19.0572451 9.84316675,20.36903 Z" id="Path" fill="#FFF3E4"></path>
                            <path d="M14.4471273,23.7646071 C12.6041517,24.5539896 10.578801,24.6152236 8.59287273,23.7646071 C8.69430857,23.3339792 8.6774026,23.0550584 8.6774026,22.5077797 L8.68862338,22.479459 C10.4900821,23.2445776 12.5464021,23.2461084 14.3513766,22.479459 L14.3625974,22.5077797 C14.3625974,23.055288 14.3456914,23.3341322 14.4471273,23.7646071 Z" id="Path" fill="#FFD6A6"></path>
                            <path d="M8.59377039,28.0438671 C8.31714078,28.132886 8.02046338,28.1819497 7.70239169,28.1847818 C4.61323636,28.2126433 2.09454545,30.7119846 2.09454545,33.8730356 L2.09454545,34.4484054 C2.09454545,35.0402318 1.62566649,35.52 1.04727273,35.52 L0.598441558,35.52 C0.267952208,35.52 0,35.2458249 0,34.9076602 L0,31.9026028 C0,28.7497418 2.49811948,26.1959787 5.57934545,26.1948306 C6.66880831,26.1944479 7.62803532,25.6204559 8.17994805,24.7512396 C8.4024187,24.9456575 8.64059844,25.1204039 8.89149506,25.2734123 C9.9950961,25.9462972 9.81922909,27.6495968 8.59377039,28.0438671 Z" id="Path" fill="#3F3F3F"></path>
                            <path d="M14.4462296,28.0438671 C14.7228592,28.132886 15.0195366,28.1819497 15.3376083,28.1847818 C18.4267636,28.2126433 20.9454545,30.7119846 20.9454545,33.8730356 L20.9454545,34.4484054 C20.9454545,35.0402318 21.4143335,35.52 21.9927273,35.52 L22.4415584,35.52 C22.7720478,35.52 23.04,35.2458249 23.04,34.9076602 L23.04,31.9026028 C23.04,28.7497418 20.5418805,26.1959787 17.4606545,26.1948306 C16.3711917,26.1944479 15.4119647,25.6204559 14.8600519,24.7512396 C14.6375813,24.9456575 14.3994016,25.1204039 14.1485049,25.2734123 C13.0449787,25.9462972 13.2207709,27.6495968 14.4462296,28.0438671 L14.4462296,28.0438671 Z" id="Path" fill="#3F3F3F"></path>
                            <path d="M16.9890078,1.51371043 C16.1094483,1.88409946 15.9840748,1.96577027 15.6793184,1.91739543 C10.7665621,1.13819306 6.45628675,3.21808166 4.9924987,8.10095559 L4.9924987,8.10172102 C4.44492468,8.74620863 4.11428571,9.58817583 4.11428571,10.5082163 L4.11428571,13.3803195 C4.11428571,14.6193891 2.24415584,14.7056524 2.24415584,13.3578926 L2.24415584,10.1767874 C2.22021818,9.06921787 2.26958961,5.16325551 5.02690909,2.44370147 C8.23305974,-0.718268059 13.3138286,-0.459554502 16.9942442,1.23203413 C17.1139325,1.28714471 17.1101922,1.46242698 16.9890078,1.51371043 Z" id="Path" fill="#4D4E59"></path>
                        </g>
                    </g>
                </g>
            </g>
        </g>
    </g>
</svg>