<?xml version="1.0" encoding="UTF-8"?>
<svg width="24px" height="24px" viewBox="0 0 24 24" version="1.1" xmlns="http://www.w3.org/2000/svg" xmlns:xlink="http://www.w3.org/1999/xlink">
    <title>ic_Occasion</title>
    <defs>
        <path d="M8.14285714,2 C10.3978983,2 12.1847789,3.42246962 12.9209054,5.5970571 C13.7617326,4.96344176 14.79043,4.61614036 15.8571429,4.62499967 C18.8374286,4.62499967 21,7.10956187 21,10.5312489 C21,13.1916613 19.7229751,16.0789987 17.7303432,17.2320889 L18.3064286,18.012498 C18.4525264,18.2113533 18.4760266,18.4774049 18.3671318,18.6997318 C18.2582369,18.9220588 18.0356392,19.0624979 17.7921429,19.0624979 L16.1274814,19.0623911 C16.0250574,19.2000067 15.955285,19.3613369 15.9252857,19.5336853 C15.9368571,19.6452478 16.0924286,19.7554978 16.1824286,19.8119353 C16.664445,20.0630807 16.9929635,20.5420295 17.0592857,21.0903101 C17.058324,21.7564787 16.7774204,22.3902089 16.2878571,22.8306849 C16.1697662,22.9396034 16.0162951,22.9999324 15.8571429,22.9999974 C15.5914755,22.9993474 15.3535663,22.8319397 15.2584451,22.5787164 C15.1633239,22.3254931 15.2305877,22.0386236 15.4277143,21.85681 C15.6153984,21.6915667 15.741617,21.4653873 15.7851429,21.2163101 C15.7735714,21.1047476 15.618,20.9944976 15.528,20.9380601 C15.0459836,20.6869148 14.7174651,20.2079659 14.6511429,19.6596853 C14.6514372,19.4558208 14.6779485,19.2549942 14.7286338,19.0618145 L13.9285714,19.0624979 C13.6850751,19.0624979 13.4624774,18.9220588 13.3535825,18.6997318 C13.2446877,18.4774049 13.2681879,18.2113533 13.4142857,18.012498 L13.9930427,17.22919 C12.7553185,16.5066765 11.8009182,15.1146527 11.2524095,13.5799054 C10.8818851,13.995872 10.467322,14.3459529 10.0160575,14.6070893 L10.5921429,15.3874983 C10.7382407,15.5863536 10.7617409,15.8524052 10.6528461,16.0747322 C10.5439512,16.2970592 10.3213535,16.4374982 10.0778571,16.4374982 L8.51861959,16.4362704 C8.28085481,16.9259341 7.93273607,17.9200619 8.598,18.5991854 C9.55341252,19.7847751 9.58692043,21.4847588 8.679,22.7086224 C8.5593343,22.8912433 8.35808391,23.0006159 8.14285714,23 C7.90655891,22.9997166 7.68945961,22.8671215 7.57749463,22.654698 C7.46552966,22.4422745 7.47675001,22.1842694 7.60671429,21.98281 C7.64657143,21.91981 8.58128571,20.4393102 7.68771429,19.5271228 C6.97784054,18.6456444 6.77739786,17.4801372 7.0942767,16.4373708 L6.21428571,16.4374982 C5.97078939,16.4374982 5.74819167,16.2970592 5.63929681,16.0747322 C5.53040194,15.8524052 5.55390221,15.5863536 5.7,15.3874983 L6.27563131,14.6094857 C4.27957782,13.4565979 3,10.562169 3,7.90624927 C3,4.49374969 5.16257143,2 8.14285714,2 Z M15.8571429,5.93749951 C14.8674207,5.92128029 13.9200771,6.32621454 13.2382265,7.04758381 C13.2698336,7.3266965 13.2857143,7.61303203 13.2857143,7.90624927 C13.2857143,9.35096159 12.9091283,10.8625926 12.2458611,12.127082 L12.1414286,11.9684363 C12.6312857,14.5159984 14.2281429,16.4374982 15.8571429,16.4374982 C17.8397143,16.4374982 19.7142857,13.5670611 19.7142857,10.5312489 C19.7142857,7.82618678 18.129,5.93749951 15.8571429,5.93749951 Z M8.14285714,3.31249984 C5.871,3.31249984 4.28571429,5.2011871 4.28571429,7.90624927 C4.28571429,10.9420614 6.16028571,13.8124998 8.14285714,13.8124998 C10.1254286,13.8124998 12,10.9420614 12,7.90624927 C12,5.2011871 10.4147143,3.31249984 8.14285714,3.31249984 Z" id="path-1"></path>
    </defs>
    <g id="Page-1" stroke="none" stroke-width="1" fill="none" fill-rule="evenodd">
        <g id="01.01.Occasion-Group" transform="translate(-30.000000, -161.000000)">
            <g id="Occasions" transform="translate(15.000000, 149.000000)">
                <g id="ic_Occasion" transform="translate(15.000000, 12.000000)">
                    <mask id="mask-2" fill="white">
                        <use xlink:href="#path-1"></use>
                    </mask>
                    <use id="Combined-Shape" fill="#000000" fill-rule="nonzero" xlink:href="#path-1"></use>
                    <g id="Icon-Color" mask="url(#mask-2)" fill="#5E5873">
                        <rect id="🎨-Icon-Color" x="0" y="0" width="24" height="24"></rect>
                    </g>
                </g>
            </g>
        </g>
    </g>
</svg>