<?xml version="1.0" encoding="UTF-8"?>
<svg width="15px" height="18px" viewBox="0 0 15 18" version="1.1" xmlns="http://www.w3.org/2000/svg" xmlns:xlink="http://www.w3.org/1999/xlink">
    <title>ic_Order</title>
    <g id="Page-1" stroke="none" stroke-width="1" fill="none" fill-rule="evenodd">
        <g id="02.16.View-Pending-Order-_Details_Status_Add-Product_Product-view" transform="translate(-739.000000, -396.000000)" fill="#42436A" fill-rule="nonzero">
            <g id="Group-34-Copy-2" transform="translate(288.000000, 203.640000)">
                <g id="Group-33" transform="translate(59.000000, 52.000000)">
                    <g id="Header" transform="translate(0.157900, 0.000000)">
                        <g id="Order-within" transform="translate(384.937818, 135.000000)">
                            <g id="ic_Order" transform="translate(7.680000, 5.760000)">
                                <path d="M11.788017,2.16444265 L10.3155532,2.16444265 C10.2460517,3.33234314 9.23798251,4.26206539 8.00840583,4.26206539 L5.43159417,4.26206539 C4.20201749,4.26206539 3.19394827,3.33234314 3.1244468,2.16444265 L1.65198299,2.16444265 C0.760310327,2.16444265 0,2.85656059 0,3.75566234 L0,15.6887803 C0,16.5860252 0.758803235,17.28 1.65198299,17.28 L11.788017,17.28 C12.6812669,17.28 13.44,16.5859577 13.44,15.6887803 L13.44,3.7556961 C13.44,2.85652683 12.6796196,2.16444265 11.788017,2.16444265 Z M7.28310911,15.1103667 L2.7782012,15.1103667 C2.4878582,15.1103667 2.25247148,14.8836332 2.25247148,14.6039637 C2.25247148,14.3242942 2.4878582,14.0975606 2.7782012,14.0975606 L7.28310911,14.0975606 C7.97847429,14.1218342 7.98068235,15.0852491 7.28310911,15.1103667 Z M7.28310911,12.9406997 L2.7782012,12.9406997 C2.4878582,12.9406997 2.25247148,12.7139662 2.25247148,12.4342967 C2.25247148,12.1546271 2.4878582,11.9278936 2.7782012,11.9278936 L7.28310911,11.9278936 C7.97847429,11.9521672 7.98068235,12.9155821 7.28310911,12.9406997 Z M7.28310911,10.7710665 L2.7782012,10.7710665 C2.4878582,10.7710665 2.25247148,10.5443329 2.25247148,10.2646634 C2.25247148,9.98499387 2.4878582,9.75826034 2.7782012,9.75826034 L7.28310911,9.75826034 C7.97847429,9.78253393 7.98068235,10.7459151 7.28310911,10.7710665 Z M4.46754605,8.60139944 C3.74712108,8.57098149 3.78350158,7.57296235 4.50490791,7.58859332 C4.47273325,6.2105018 5.6654738,5.59599857 6.19425275,5.48091003 C6.13368869,4.67761974 7.3065216,4.67815991 7.2457122,5.48094379 C7.77396543,5.59586353 8.96733685,6.21026548 8.93505705,7.58859332 C9.23784232,7.57073417 9.49937533,7.80108004 9.49815293,8.09499638 C9.49815293,8.37466591 9.26276191,8.60139944 8.9724189,8.60139944 L4.46754605,8.60139944 Z M10.6617988,15.1103667 L9.53554554,15.1103667 C8.83923404,15.085688 8.83884851,14.1223744 9.53554554,14.0975606 L10.6617988,14.0975606 C11.3581103,14.1222393 11.3584958,15.085553 10.6617988,15.1103667 Z M10.6617988,12.9406997 L9.53554554,12.9406997 C8.83923404,12.916021 8.83884851,11.9527074 9.53554554,11.9278936 L10.6617988,11.9278936 C11.3581103,11.9526061 11.3584958,12.915886 10.6617988,12.9406997 Z M10.6617988,10.7710665 L9.53554554,10.7710665 C8.83923404,10.7463877 8.83884851,9.78307409 9.53554554,9.75826034 L10.6617988,9.75826034 C11.3581103,9.78293905 11.3584958,10.7462189 10.6617988,10.7710665 Z" id="Shape"></path>
                                <path d="M6.71998248,6.43172861 C6.07333492,6.43024697 5.5356536,6.94961394 5.55636735,7.58859332 L7.8835976,7.58859332 C7.90448659,6.946508 7.36323032,6.43011193 6.71998248,6.43172861 L6.71998248,6.43172861 Z" id="Path"></path>
                                <path d="M5.43159417,3.24929304 L8.00837079,3.24929304 C9.73802158,3.17464923 9.64633431,0.781118296 7.91447546,0.822170704 C7.52743323,-0.274394477 5.91204104,-0.273719273 5.52545445,0.822170704 C3.80060532,0.778079878 3.69587996,3.17049672 5.43159417,3.24929304 Z" id="Path"></path>
                            </g>
                        </g>
                    </g>
                </g>
            </g>
        </g>
    </g>
</svg>