<?xml version="1.0" encoding="UTF-8"?>
<svg width="80px" height="80px" viewBox="0 0 80 80" version="1.1" xmlns="http://www.w3.org/2000/svg" xmlns:xlink="http://www.w3.org/1999/xlink">
    <title>ic_Placeholder_BG</title>
    <defs>
        <rect id="path-1" x="0" y="0" width="80" height="80" rx="6"></rect>
        <rect id="path-3" x="0" y="0" width="80" height="80" rx="6"></rect>
    </defs>
    <g id="Page-1" stroke="none" stroke-width="1" fill="none" fill-rule="evenodd">
        <g id="01.04.Add-New-Group2_Form" transform="translate(-326.000000, -194.000000)">
            <g id="Content" transform="translate(287.000000, 167.000000)">
                <g id="ic_Placeholder_BG" transform="translate(39.000000, 27.000000)">
                    <mask id="mask-2" fill="white">
                        <use xlink:href="#path-1"></use>
                    </mask>
                    <use id="Mask" fill="#BABFC7" xlink:href="#path-1"></use>
                    <mask id="mask-4" fill="white">
                        <use xlink:href="#path-3"></use>
                    </mask>
                    <use id="Mask" fill-opacity="0.5" fill="#FFFFFF" xlink:href="#path-3"></use>
                    <g id="ic_Placeholder" mask="url(#mask-4)">
                        <g transform="translate(0.000000, 0.400000)" id="upload-4">
                            <g transform="translate(24.000000, 25.074000)">
                                <path d="M27.3375,0 L5.0625,0 C2.27095644,0 0,2.28046529 0,5.08369748 L0,22.8766387 C0,25.6798708 2.27095644,27.9603361 5.0625,27.9603361 L22.3382812,27.9603361 C23.0373413,27.9603361 23.6039062,27.3913989 23.6039062,26.6894118 C23.6039062,25.9874246 23.0373413,25.4184874 22.3382812,25.4184874 L17.6767273,25.4184874 L14.7667785,21.6275583 L23.9882904,9.84941565 L30.1960327,16.7392158 C30.5470459,17.1291811 31.101004,17.2614863 31.5894562,17.0725852 C32.0776611,16.8834359 32.4,16.412052 32.4,15.8865546 L32.4,5.08369748 C32.4,2.28046529 30.1290436,0 27.3375,0 Z M29.86875,12.5876123 L24.858902,7.0270699 C24.6087433,6.74930347 24.2488312,6.5958989 23.8765595,6.60955142 C23.5040405,6.62270746 23.1559937,6.7999418 22.9253632,7.09433955 L13.1726349,19.5508877 L9.86174013,15.2376881 C9.62221072,14.9256663 9.2519165,14.7427227 8.859375,14.7427227 C8.85912782,14.7427227 8.85888065,14.7427227 8.85863341,14.7427227 C8.4660919,14.7429709 8.09555057,14.9261628 7.85626834,15.2386811 L5.07090451,18.8747163 C4.6447449,19.4312421 4.74831847,20.2290451 5.30227658,20.6569891 C5.85648193,21.0851814 6.65095822,20.9809259 7.07736513,20.4246482 L8.86036377,18.0967715 L14.480777,25.4184874 L5.0625,25.4184874 C3.66685177,25.4184874 2.53125,24.2781307 2.53125,22.8766387 L2.53125,5.08369748 C2.53125,3.68220546 3.66685177,2.54184874 5.0625,2.54184874 L27.3375,2.54184874 C28.7331482,2.54184874 29.86875,3.68220546 29.86875,5.08369748 L29.86875,12.5876123 Z" id="Shape" fill="#000000" fill-rule="nonzero"></path>
                                <path d="M8.859375,4.57532773 C6.76565549,4.57532773 5.0625,6.2856146 5.0625,8.38810084 C5.0625,10.4905871 6.76565549,12.2008739 8.859375,12.2008739 C10.9530945,12.2008739 12.65625,10.4905871 12.65625,8.38810084 C12.65625,6.2856146 10.9530945,4.57532773 8.859375,4.57532773 Z M8.859375,9.65902521 C8.16155089,9.65902521 7.59375,9.08884685 7.59375,8.38810084 C7.59375,7.68735483 8.16155089,7.11717647 8.859375,7.11717647 C9.55719911,7.11717647 10.125,7.68735483 10.125,8.38810084 C10.125,9.08884685 9.55719911,9.65902521 8.859375,9.65902521 Z" id="Shape" fill="#000000" fill-rule="nonzero"></path>
                                <path d="M29.6457824,19.2507808 C29.6420746,19.2470573 29.6383667,19.2430857 29.6346588,19.2393623 C29.0364532,18.6344321 28.240741,18.3013109 27.3938599,18.3013109 C26.5494507,18.3013109 25.7559631,18.6324463 25.1584991,19.2339013 L22.7150024,21.6541186 C22.2174042,22.1468501 22.2119659,22.9516034 22.70289,23.4512851 C23.1935669,23.9509669 23.9949646,23.9566762 24.4925629,23.4636965 L26.1282349,21.8437644 L26.1282349,28.9770756 C26.1282349,29.6790628 26.6947998,30.248 27.3938599,30.248 C28.0929199,30.248 28.6594849,29.6790628 28.6594849,28.9770756 L28.6594849,21.8824879 L30.2249542,23.5063916 C30.4731354,23.7640517 30.8036316,23.8933782 31.134375,23.8933782 C31.4515228,23.8933782 31.7689179,23.7744772 32.0146271,23.5356825 C32.516922,23.0474191 32.529776,22.2429141 32.0435486,21.738516 L29.6457824,19.2507808 Z" id="Path" fill="#000000" fill-rule="nonzero"></path>
                            </g>
                        </g>
                    </g>
                </g>
            </g>
        </g>
    </g>
</svg>