<?xml version="1.0" encoding="UTF-8"?>
<svg width="40px" height="51px" viewBox="0 0 40 51" version="1.1" xmlns="http://www.w3.org/2000/svg" xmlns:xlink="http://www.w3.org/1999/xlink">
    <title>ic_pdf</title>
    <g id="Page-1" stroke="none" stroke-width="1" fill="none" fill-rule="evenodd">
        <g id="Edit-service-Provider-v3-Step3" transform="translate(-539.000000, -331.000000)" fill-rule="nonzero">
            <g id="Verification-Documents" transform="translate(327.000000, 261.000000)">
                <g id="Group-5" transform="translate(1.000000, 46.000000)">
                    <g id="ic_pdf" transform="translate(211.000000, 24.000000)">
                        <path d="M8.57142857,0 C7,0 5.71428571,1.434375 5.71428571,3.1875 L5.71428571,47.8125 C5.71428571,49.565625 7,51 8.57142857,51 L37.1428571,51 C38.7142857,51 40,49.565625 40,47.8125 L40,12.75 L28.5714286,0 L8.57142857,0 Z" id="Path" fill="#E2E5E7"></path>
                        <path d="M31.4285714,12.75 L40,12.75 L28.5714286,0 L28.5714286,9.5625 C28.5714286,11.315625 29.8571429,12.75 31.4285714,12.75 Z" id="Path" fill="#B0B7BD"></path>
                        <polygon id="Path" fill="#CAD1D8" points="40 22.3125 31.4285714 12.75 40 12.75"></polygon>
                        <path d="M34.2857143,41.4375 C34.2857143,42.3140625 33.6428571,43.03125 32.8571429,43.03125 L1.42857143,43.03125 C0.642857143,43.03125 0,42.3140625 0,41.4375 L0,25.5 C0,24.6234375 0.642857143,23.90625 1.42857143,23.90625 L32.8571429,23.90625 C33.6428571,23.90625 34.2857143,24.6234375 34.2857143,25.5 L34.2857143,41.4375 Z" id="Path" fill="#F15642"></path>
                        <g id="Group" transform="translate(6.227143, 29.317031)" fill="#FFFFFF">
                            <path d="M0,0.87975 C0,0.459 0.297142857,0 0.775714286,0 L3.41428571,0 C4.9,0 6.23714286,1.10925 6.23714286,3.2353125 C6.23714286,5.2498125 4.9,6.3718125 3.41428571,6.3718125 L1.50714286,6.3718125 L1.50714286,8.0548125 C1.50714286,8.6158125 1.18714286,8.93296875 0.775714286,8.93296875 C0.398571429,8.93296875 0,8.6158125 0,8.0548125 L0,0.87975 L0,0.87975 Z M1.50714286,1.60490625 L1.50714286,4.77965625 L3.41428571,4.77965625 C4.18,4.77965625 4.78571429,4.0258125 4.78571429,3.2353125 C4.78571429,2.34440625 4.18,1.60490625 3.41428571,1.60490625 L1.50714286,1.60490625 Z" id="Shape"></path>
                            <path d="M8.47428571,8.93296875 C8.09714286,8.93296875 7.68571429,8.70346875 7.68571429,8.1440625 L7.68571429,0.90525 C7.68571429,0.44784375 8.09714286,0.11475 8.47428571,0.11475 L11.09,0.11475 C16.31,0.11475 16.1957143,8.93296875 11.1928571,8.93296875 L8.47428571,8.93296875 L8.47428571,8.93296875 Z M9.19428571,1.67025 L9.19428571,7.3790625 L11.09,7.3790625 C14.1742857,7.3790625 14.3114286,1.67025 11.09,1.67025 L9.19428571,1.67025 L9.19428571,1.67025 Z" id="Shape"></path>
                            <path d="M18.0471429,1.77225 L18.0471429,3.79790625 L20.96,3.79790625 C21.3714286,3.79790625 21.7828571,4.25690625 21.7828571,4.7015625 C21.7828571,5.1223125 21.3714286,5.4665625 20.96,5.4665625 L18.0471429,5.4665625 L18.0471429,8.14246875 C18.0471429,8.58871875 17.7628571,8.931375 17.3628571,8.931375 C16.86,8.931375 16.5528571,8.58871875 16.5528571,8.14246875 L16.5528571,0.90365625 C16.5528571,0.44625 16.8614286,0.11315625 17.3628571,0.11315625 L21.3728571,0.11315625 C21.8757143,0.11315625 22.1728571,0.44625 22.1728571,0.90365625 C22.1728571,1.31165625 21.8757143,1.77065625 21.3728571,1.77065625 L18.0471429,1.77065625 L18.0471429,1.77225 Z" id="Path"></path>
                        </g>
                        <path d="M32.8571429,43.03125 L5.71428571,43.03125 L5.71428571,44.625 L32.8571429,44.625 C33.6428571,44.625 34.2857143,43.9078125 34.2857143,43.03125 L34.2857143,41.4375 C34.2857143,42.3140625 33.6428571,43.03125 32.8571429,43.03125 Z" id="Path" fill="#CAD1D8"></path>
                    </g>
                </g>
            </g>
        </g>
    </g>
</svg>