<?xml version="1.0" encoding="UTF-8"?>
<svg width="21px" height="12px" viewBox="0 0 21 12" version="1.1" xmlns="http://www.w3.org/2000/svg" xmlns:xlink="http://www.w3.org/1999/xlink">
    <title>ic_Person</title>
    <g id="Page-1" stroke="none" stroke-width="1" fill="none" fill-rule="evenodd">
        <g id="02.16.View-Pending-Order-_Details_Status_Add-Product_Product-view" transform="translate(-559.000000, -399.000000)" fill="#42436A" fill-rule="nonzero">
            <g id="Group-34-Copy-2" transform="translate(288.000000, 203.640000)">
                <g id="Group-33" transform="translate(59.000000, 52.000000)">
                    <g id="Header" transform="translate(0.157900, 0.000000)">
                        <g id="Persons" transform="translate(207.937818, 135.000000)">
                            <g id="ic_Person" transform="translate(4.800000, 8.640000)">
                                <path d="M11.952,7.23690775 C11.469375,6.95678738 10.915875,6.79780015 10.3275,6.79780015 L8.929125,6.79780015 C8.32425,6.79780015 7.7565,6.96595206 7.264875,7.26041714 C6.231,7.87883366 5.53275,9.05629553 5.53275,10.4066909 L5.53275,11.52 L13.723875,11.52 L13.723875,10.4066909 C13.723875,9.0387631 13.007625,7.84894884 11.952,7.23690775 Z" id="Path"></path>
                                <path d="M15.81375,5.80881187 L14.65125,5.80881187 C13.9725,5.80881187 13.339875,6.02199025 12.80925,6.38937429 C13.06425,6.56708934 13.303875,6.77468922 13.52475,7.00938466 C14.378625,7.91668777 14.848875,9.12323752 14.848875,10.4066909 L14.848875,10.9302729 L19.2,10.9302729 L19.2,9.40694407 C19.2,7.42299056 17.680875,5.80881187 15.81375,5.80881187 Z" id="Path"></path>
                                <path d="M4.54875,5.80881187 L3.38625,5.80881187 C1.519125,5.80881187 0,7.42299056 0,9.40694407 L0,10.9302729 L4.40775,10.9302729 L4.40775,10.4066909 C4.40775,9.12323752 4.878375,7.91668777 5.73225,7.00938466 C5.944875,6.78345543 6.17475,6.58262945 6.41925,6.4092975 C5.883,6.02995953 5.239875,5.80881187 4.54875,5.80881187 Z" id="Path"></path>
                                <path d="M15.2307375,0.397308706 C15.224775,0.397308706 15.2185875,0.397308706 15.2125875,0.397428245 C13.9541625,0.408465705 12.9392625,1.56421127 12.9502125,2.97369887 C12.961125,4.37649227 13.9839,5.51000353 15.2341875,5.51000353 C15.2401875,5.51000353 15.2463375,5.51000353 15.2523375,5.50988399 C15.8694,5.50446487 16.4452125,5.22824946 16.8737625,4.73204192 C17.2923375,4.24735001 17.5199625,3.6086915 17.51475,2.93361337 C17.5038375,1.53081996 16.4810625,0.397308706 15.2307375,0.397308706 Z" id="Path"></path>
                                <path d="M3.965775,0.397308706 C3.9598125,0.397308706 3.953625,0.397308706 3.947625,0.397428245 C2.6892,0.408465705 1.6743,1.56421127 1.68525,2.97369887 C1.696125,4.37649227 2.7189375,5.51000353 3.969225,5.51000353 C3.975225,5.51000353 3.981375,5.51000353 3.987375,5.50988399 C4.6044,5.50446487 5.18025,5.22824946 5.6088,4.73204192 C6.0274125,4.24735001 6.2550375,3.6086915 6.2497875,2.93361337 C6.238875,1.53081996 5.2161,0.397308706 3.965775,0.397308706 Z" id="Path"></path>
                                <path d="M9.6285,0 C8.177625,0 6.9975,1.32489364 6.9975,2.9538155 C6.9975,4.1308789 7.614,5.14935353 8.503875,5.62352599 C8.845125,5.80562416 9.2265,5.90723254 9.6285,5.90723254 C10.0305,5.90723254 10.411875,5.80562416 10.753125,5.62352599 C11.643,5.14935353 12.2595,4.1308789 12.2595,2.9538155 C12.2595,1.32489364 11.079375,0 9.6285,0 Z" id="Path"></path>
                            </g>
                        </g>
                    </g>
                </g>
            </g>
        </g>
    </g>
</svg>