<?xml version="1.0" encoding="UTF-8"?>
<svg width="32px" height="32px" viewBox="0 0 32 32" version="1.1" xmlns="http://www.w3.org/2000/svg" xmlns:xlink="http://www.w3.org/1999/xlink">
    <title>ic_trash_rect</title>
    <g id="Page-1" stroke="none" stroke-width="1" fill="none" fill-rule="evenodd">
        <g id="02.16.View-Pending-Order-_Details_Status_Edit/Add" transform="translate(-960.000000, -478.000000)">
            <g id="Group-11" transform="translate(290.000000, 168.000000)">
                <g id="Rectangle-Copy-5" transform="translate(19.000000, 86.000000)">
                    <g id="ic_trash_rect" transform="translate(651.000000, 224.000000)">
                        <rect id="card-copy-8" fill="#EBF1F6" x="0" y="0" width="32" height="32" rx="7"></rect>
                        <g id="ic_trash" transform="translate(7.000000, 6.000000)" stroke="#565769" stroke-linecap="round" stroke-linejoin="round" stroke-width="2">
                            <polyline id="Path" points="0 4 2 4 18 4"></polyline>
                            <path d="M16,4 L16,18 C16,19.1045695 15.1045695,20 14,20 L4,20 C2.8954305,20 2,19.1045695 2,18 L2,4 M5,4 L5,2 C5,0.8954305 5.8954305,0 7,0 L11,0 C12.1045695,0 13,0.8954305 13,2 L13,4" id="Shape"></path>
                            <line x1="7" y1="9" x2="7" y2="15" id="Path"></line>
                            <line x1="11" y1="9" x2="11" y2="15" id="Path"></line>
                        </g>
                    </g>
                </g>
            </g>
        </g>
    </g>
</svg>