<?xml version="1.0" encoding="UTF-8"?>
<svg width="24px" height="34px" viewBox="0 0 24 34" version="1.1" xmlns="http://www.w3.org/2000/svg" xmlns:xlink="http://www.w3.org/1999/xlink">
    <title>ic_woman</title>
    <g id="Page-1" stroke="none" stroke-width="1" fill="none" fill-rule="evenodd">
        <g id="02.16.View-Pending-Order-_Details_Status_Add-Product_Product-view" transform="translate(-371.000000, -1052.000000)" fill-rule="nonzero">
            <g id="Group-34-Copy-2" transform="translate(288.000000, 203.640000)">
                <g id="Group-33" transform="translate(59.000000, 52.000000)">
                    <g id="Service-provider-Gender-Copy" transform="translate(0.000000, 692.120000)">
                        <g id="ic_woman" transform="translate(24.000000, 104.640000)">
                            <path d="M22.6775311,30.1777241 L22.6775311,33.0206897 C22.6775311,33.3407586 22.4181557,33.6 22.0979213,33.6 L0.942162833,33.6 C0.621928408,33.6 0.362553013,33.3407586 0.362553013,33.0206897 L0.362553013,30.1777241 C0.362553013,27.9915517 1.66305255,26.108069 3.53301873,25.2586552 C2.77003485,24.6519 1.6071202,23.8363759 0.761034765,22.0818621 C-0.417384451,19.6416621 -0.215680234,16.7629241 1.28558165,14.5095517 C2.10138247,13.2857586 2.53608984,11.849069 2.53608984,10.379069 L2.53608984,7.24137931 C2.53608984,3.24196552 5.7797313,0 9.78121259,0 L13.2588715,0 C17.2603528,0 20.5039943,3.24196552 20.5039943,7.24137931 C20.5039943,10.564231 20.4227764,11.2149414 20.8235042,12.5362759 C21.388986,14.4046241 22.1358857,14.635769 22.7115832,16.5371379 C23.6165715,19.5259448 22.6155128,22.7855069 20.1489833,24.7481379 L19.5070654,25.2586552 C21.3770316,26.108069 22.6775311,27.9915517 22.6775311,30.1777241 Z" id="Path" fill="#FFDFBA"></path>
                            <path d="M22.6775311,30.1777241 L22.6775311,33.0206897 C22.6775311,33.3406138 22.4180108,33.6 22.0979213,33.6 L0.942162833,33.6 C0.62207331,33.6 0.362553013,33.3406138 0.362553013,33.0206897 L0.362553013,30.1777241 C0.362553013,27.1970276 2.78017803,24.7778276 5.76524105,24.7778276 C6.20936708,24.7778276 6.63103322,24.6815172 7.00995314,24.5091724 L7.02806595,24.5482759 L11.1652484,27.7495448 C11.3741253,27.9111724 11.6659588,27.9111724 11.8749082,27.7495448 L16.0120182,24.5482759 L16.030131,24.5091724 C16.4090509,24.6815172 16.830717,24.7778276 17.2748431,24.7778276 C20.2483139,24.7778276 22.6775311,27.1855138 22.6775311,30.1777241 L22.6775311,30.1777241 Z" id="Path" fill="#758291"></path>
                            <path d="M18.1441129,10.5910966 C18.4518133,10.6086207 18.6927136,10.8613448 18.6927136,11.1693931 L18.6927136,14.637 C18.6927136,17.6255172 16.8633201,20.1867931 14.262321,21.2628621 C9.55900468,23.2141966 4.34737053,19.7476759 4.34737053,14.637 L4.34737053,11.2197931 C4.34737053,10.8802448 4.63833466,10.6119517 4.97668189,10.6425828 C8.45339895,10.9576552 11.8770817,10.0801448 14.7520189,8.14437931 C15.0789913,7.92424138 15.5292032,8.08731724 15.6324462,8.46763448 C15.9900654,9.78513103 16.9654763,10.523969 18.1441129,10.5910966 Z" id="Path" fill="#FFEBD2"></path>
                            <path d="M20.1489833,24.7481379 L19.5070654,25.2587276 C18.8267484,24.9501724 18.071082,24.7778276 17.2748431,24.7778276 C15.620854,24.7778276 14.2731887,23.4428793 14.2731887,21.7842414 L14.2731887,21.2896552 L14.262321,21.2628621 C16.8633201,20.1867931 18.6927136,17.6255172 18.6927136,14.637 L18.6927136,11.1693931 C18.6927136,10.8613448 18.4518133,10.6086207 18.1441129,10.5910966 C16.9727214,10.5244034 15.9923839,9.79360345 15.6324462,8.4677069 C15.5292032,8.08738966 15.0789913,7.92431379 14.7520189,8.14445172 C11.8789654,10.0789138 8.45550003,10.9578724 4.97668189,10.6426552 C4.63833466,10.6120241 4.34737053,10.8803172 4.34737053,11.2198655 L4.34737053,14.6370724 C4.34737053,17.6255897 6.17676402,20.1868655 8.77776309,21.2629345 L8.76689541,21.2897276 L8.76689541,21.7843138 C8.76689541,23.4426621 7.41959238,24.7779 5.76524105,24.7779 C4.96900206,24.7779 4.21333576,24.9502448 3.53301873,25.2587276 L2.89110085,24.7482103 C-0.225098894,22.2664448 -0.9189643,17.8185724 1.28558165,14.5096241 C2.10138247,13.285831 2.53608984,11.8491414 2.53608984,10.3791414 L2.53608984,7.24137931 C2.53608984,3.24211034 5.7798762,0 9.78121259,0 L13.2588715,0 C17.2602079,0 20.5039943,3.24211034 20.5039943,7.24137931 L20.5039943,10.379069 C20.5039943,11.847331 20.9387016,13.2857586 21.7545025,14.5095517 C23.9670905,17.8305931 23.2533735,22.2779586 20.1489833,24.7481379 Z" id="Path" fill="#42434D"></path>
                            <path d="M14.3550586,22.4786897 C12.5700777,23.2254931 10.6084607,23.2834241 8.68502552,22.4786897 C8.78326939,22.0712897 8.76689541,21.8074138 8.76689541,21.2896552 L8.77776309,21.2628621 C10.5225336,21.9867103 12.5141453,21.9881586 14.262321,21.2628621 L14.2731887,21.2896552 C14.2731887,21.807631 14.2568147,22.0714345 14.3550586,22.4786897 Z" id="Path" fill="#FFD6A6"></path>
                            <path d="M16.5318557,0.779317241 C17.2717277,1.15442069 16.9501891,2.28313448 16.1242451,2.205 C15.8965309,2.18342069 15.6657013,2.17241379 15.4323359,2.17241379 L11.954677,2.17241379 C7.95334057,2.17241379 4.70955421,5.41452414 4.70955421,9.4137931 L4.70955421,10.2949241 C4.70955421,10.8151448 4.34729808,10.7983448 4.34729808,11.2197931 C4.34729808,15.0448345 4.36280264,14.8026828 4.30665294,14.9677138 C3.73827306,16.6388793 3.05571004,16.8807414 2.50196531,18.7095517 C2.20035085,19.7056759 2.11123584,20.7314897 2.21571051,21.7269621 C2.30098561,22.5394448 1.16908008,22.9280897 0.760962313,22.0818621 C-0.40905256,19.6591138 -0.225823406,16.7780586 1.2855092,14.5095517 C2.10131002,13.2857586 2.53601739,11.849069 2.53601739,10.379069 L2.53601739,7.24137931 C2.53601739,3.24211034 5.77980375,0 9.78114014,0 L13.2587991,0 C14.4366387,0 15.548765,0.280893103 16.5318557,0.779317241 Z" id="Path" fill="#4D4E59"></path>
                            <path d="M10.1449902,19.4394103 C11.2273391,20.1635483 10.4024094,21.8384793 9.17341925,21.4074 C6.47200278,20.4599379 4.34737053,17.9400103 4.34737053,14.6369276 L4.34737053,11.2197207 C4.34737053,10.8801 4.63862446,10.612169 4.9769717,10.6425828 C5.2546048,10.6677828 5.55947956,10.6876241 5.88848059,10.6976897 C6.48395723,10.7157931 6.95561472,11.2072655 6.95561472,11.8027241 L6.95561472,13.4783793 C6.95561472,16.0002621 8.24205872,18.1663034 10.1449902,19.4394103 Z" id="Path" fill="#FFF3E4"></path>
                            <path d="M8.22300404,25.4729276 C8.56685757,25.7389759 8.38514989,26.2968517 7.95029762,26.2985172 C4.88321981,26.3099586 2.53608984,28.7713759 2.53608984,31.6984138 L2.53608984,33.6 L0.942162833,33.6 C0.62207331,33.6 0.362553013,33.3406138 0.362553013,33.0206897 L0.362553013,30.1777241 C0.362553013,27.1969552 2.78025048,24.7778276 5.76524105,24.7778276 C6.20936708,24.7778276 6.63103322,24.6815172 7.00995314,24.5091724 L7.02806595,24.5482759 L8.22300404,25.4729276 Z" id="Path" fill="#3F3F3F"></path>
                            <path d="M14.8170076,25.4729276 C14.4731541,25.7389759 14.6548618,26.2968517 15.089714,26.2985172 C18.1567919,26.3099586 20.5039218,28.7713759 20.5039218,31.6984138 L20.5039218,33.6 L22.0978488,33.6 C22.4179383,33.6 22.6774586,33.3406138 22.6774586,33.0206897 L22.6774586,30.1777241 C22.6774586,27.1969552 20.2597612,24.7778276 17.2747706,24.7778276 C16.8306446,24.7778276 16.4089784,24.6815172 16.0300585,24.5091724 L16.0119457,24.5482759 L14.8170076,25.4729276 Z" id="Path" fill="#3F3F3F"></path>
                        </g>
                    </g>
                </g>
            </g>
        </g>
    </g>
</svg>