<?xml version="1.0" encoding="UTF-8"?>
<svg width="48px" height="48px" viewBox="0 0 48 48" version="1.1" xmlns="http://www.w3.org/2000/svg" xmlns:xlink="http://www.w3.org/1999/xlink">
    <title>ic_package_Circle</title>
    <defs>
        <path d="M21.3,4.6 L13.3,0.6 C13.3,0.6 13.3,0.6 13.3,0.6 C12.5,0.2 11.5,0.2 10.6,0.6 L2.6,4.6 C1.6,5.1 1,6.1 1,7.2 L1,16.7 C1,17.8 1.6,18.9 2.7,19.4 L10.7,23.4 C11.1,23.6 11.6,23.7 12,23.7 C12.5,23.7 12.9,23.6 13.3,23.4 L21.3,19.4 C22.3,18.9 23,17.9 23,16.7 L23,7.2 C23,6.1 22.4,5.1 21.3,4.6 Z M11.6,2.3 C11.7,2.2 11.9,2.2 12,2.2 C12.2,2.2 12.3,2.2 12.4,2.3 L19.8,6 L12,9.9 L4.2,6 L11.6,2.3 Z M3.5,17.7 C3.2,17.5 3,17.1 3,16.8 L3,7.6 L11,11.6 L11,21.4 L3.5,17.7 Z M20.4,17.7 L13,21.4 L13,11.6 L21,7.6 L21,16.8 C21,17.2 20.8,17.5 20.4,17.7 Z" id="path-1"></path>
    </defs>
    <g id="Page-1" stroke="none" stroke-width="1" fill="none" fill-rule="evenodd">
        <g id="Edit-service-Provider-_-V2" transform="translate(-1047.000000, -273.000000)">
            <g id="Group-Copy-6" transform="translate(968.000000, 251.000000)">
                <g id="ic_package_Circle" transform="translate(79.000000, 22.000000)">
                    <rect id="Rectangle" fill-opacity="0.12" fill="#00CFE8" x="0" y="0" width="48" height="48" rx="24"></rect>
                    <g id="ic_package" transform="translate(12.000000, 12.000000)">
                        <mask id="mask-2" fill="white">
                            <use xlink:href="#path-1"></use>
                        </mask>
                        <use id="Mask" fill="#000000" fill-rule="nonzero" xlink:href="#path-1"></use>
                        <g id="Icon-Color" mask="url(#mask-2)" fill="#00CFE8">
                            <rect id="🎨-Icon-Color" x="0" y="0" width="24" height="24"></rect>
                        </g>
                        <g id="Icon-Color" mask="url(#mask-2)" fill="#5E5873">
                            <rect id="🎨-Icon-Color" x="0" y="0" width="24" height="24"></rect>
                        </g>
                        <g id="Icon-Color" mask="url(#mask-2)" fill="#00CFE8">
                            <rect id="🎨-Icon-Color" x="0" y="0" width="24" height="24"></rect>
                        </g>
                    </g>
                </g>
            </g>
        </g>
    </g>
</svg>