<?xml version="1.0" encoding="UTF-8"?>
<svg width="48px" height="48px" viewBox="0 0 48 48" version="1.1" xmlns="http://www.w3.org/2000/svg" xmlns:xlink="http://www.w3.org/1999/xlink">
    <title>ic_Percentage_Circle</title>
    <defs>
        <path d="M24,6 L24,12 C24,12.6 23.6,13 23,13 C22.4,13 22,12.6 22,12 L22,8.4 L14.2,16.2 C13.8,16.6 13.2,16.6 12.8,16.2 L8.5,11.9 L1.7,18.7 C1.5,18.9 1.3,19 1,19 C0.7,19 0.5,18.9 0.3,18.7 C-0.1,18.3 -0.1,17.7 0.3,17.3 L7.8,9.8 C8.2,9.4 8.8,9.4 9.2,9.8 L13.5,14.1 L20.6,7 L17,7 C16.4,7 16,6.6 16,6 C16,5.4 16.4,5 17,5 L23,5 C23.1,5 23.3,5 23.4,5.1 C23.6,5.2 23.8,5.4 23.9,5.6 C24,5.7 24,5.9 24,6 Z" id="path-1"></path>
    </defs>
    <g id="Page-1" stroke="none" stroke-width="1" fill="none" fill-rule="evenodd">
        <g id="Edit-service-Provider-_-V2" transform="translate(-613.000000, -271.000000)">
            <g id="Group-Copy-2" transform="translate(534.000000, 251.000000)">
                <g id="ic_Percentage_Circle" transform="translate(79.000000, 20.000000)">
                    <rect id="Rectangle" fill-opacity="0.12" fill="#7367F0" x="0" y="0" width="48" height="48" rx="24"></rect>
                    <g id="ic_Percentage" transform="translate(12.000000, 12.000000)">
                        <mask id="mask-2" fill="white">
                            <use xlink:href="#path-1"></use>
                        </mask>
                        <use id="Mask" fill="#000000" fill-rule="nonzero" xlink:href="#path-1"></use>
                        <g id="Icon-Color" mask="url(#mask-2)" fill="#7367F0">
                            <rect id="🎨-Icon-Color" x="0" y="0" width="24" height="24"></rect>
                        </g>
                    </g>
                </g>
            </g>
        </g>
    </g>
</svg>