<?xml version="1.0" encoding="UTF-8"?>
<svg width="22px" height="22px" viewBox="0 0 22 22" version="1.1" xmlns="http://www.w3.org/2000/svg" xmlns:xlink="http://www.w3.org/1999/xlink">
    <title>ic_placeholder</title>
    <g id="Page-1" stroke="none" stroke-width="1" fill="none" fill-rule="evenodd">
        <g id="Add-address" transform="translate(-1036.000000, -240.000000)" fill="#8A2377" fill-rule="nonzero">
            <g id="Group-21" transform="translate(1005.000000, 172.000000)">
                <g id="Group-16" transform="translate(16.000000, 29.000000)">
                    <g id="Group-14" transform="translate(1.000000, 28.000000)">
                        <g id="ic_placeholder" transform="translate(14.000000, 11.000000)">
                            <path d="M15.4429,15.7692333 C15.2412333,15.7446667 15.0593667,15.8891333 15.0359,16.0904333 C15.0124333,16.2917333 15.1561667,16.4739667 15.3571,16.4974333 C19.2129667,16.9513667 21.2666667,18.1745667 21.2666667,18.8833333 C21.2666667,19.8784667 17.3609333,21.2666667 11,21.2666667 C4.63906667,21.2666667 0.733333333,19.8784667 0.733333333,18.8833333 C0.733333333,18.1745667 2.78703333,16.9513667 6.6429,16.4974333 C6.84383333,16.4739667 6.98756667,16.2913667 6.9641,16.0904333 C6.94026667,15.8891333 6.7584,15.7439333 6.5571,15.7692333 C2.69646667,16.2239 0,17.5043 0,18.8833333 C0,20.4321333 3.7785,22 11,22 C18.2215,22 22,20.4321333 22,18.8833333 C22,17.5043 19.3035333,16.2239 15.4429,15.7692333 Z" id="Path"></path>
                            <path d="M10.9351,20.0775667 L16.5601333,11.9533333 C18.6699333,9.14063333 18.3648667,4.51733333 15.9071,2.05993333 C14.5790333,0.7315 12.8131667,0 10.9351,0 C9.05703333,0 7.29116667,0.7315 5.9631,2.05956667 C3.50533333,4.51696667 3.20026667,9.14026667 5.30163333,11.9419667 L10.9351,20.0775667 Z M11,4.4 C12.4153333,4.4 13.5666667,5.5517 13.5666667,6.96666667 C13.5666667,8.38163333 12.4153333,9.53333333 11,9.53333333 C9.58466667,9.53333333 8.43333333,8.38163333 8.43333333,6.96666667 C8.43333333,5.5517 9.58466667,4.4 11,4.4 Z" id="Shape"></path>
                        </g>
                    </g>
                </g>
            </g>
        </g>
    </g>
</svg>