<?xml version="1.0" encoding="UTF-8"?>
<svg width="19px" height="19px" viewBox="0 0 19 19" version="1.1" xmlns="http://www.w3.org/2000/svg" xmlns:xlink="http://www.w3.org/1999/xlink">
    <title>ic_Service Provider</title>
    <g id="Page-1" stroke="none" stroke-width="1" fill="none" fill-rule="evenodd">
        <g id="Add-address" transform="translate(-32.000000, -310.000000)" fill="#5E5873" fill-rule="nonzero">
            <g id="Occasions-Copy-2" transform="translate(15.000000, 298.000000)">
                <g id="ic_Service-Provider" transform="translate(17.000000, 12.000000)">
                    <path d="M15.8488611,1.58333333 L17.9939616,5.59501561 L18.2083333,5.99590704 L18.2083333,7.40479362 C18.2083333,8.36481096 17.5698283,9.21157301 16.6537925,9.48144814 L16.6537925,18.2083333 L2.51908799,18.2083333 L2.51908799,9.5248127 C1.51891704,9.31860042 0.791666667,8.43031911 0.791666667,7.40479362 L0.791666667,5.99590704 L3.15090835,1.58333333 C7.38348245,1.58333333 11.616287,1.58333333 15.8488611,1.58333333 L15.8488611,1.58333333 Z M12.0173697,11.135529 L12.0173697,17.1551283 L15.6010658,17.1551283 L15.6010658,9.5229674 C15.1375158,9.42516649 14.7182231,9.175359 14.4091129,8.81690947 C13.5500124,9.81337149 11.9954715,9.81337149 11.136371,8.81690947 C10.2772704,9.81337149 8.72249905,9.81337149 7.86339854,8.81690947 C7.00452853,9.81337149 5.44975714,9.81337149 4.59065663,8.81690947 C4.32142416,9.1292265 3.96690401,9.36035033 3.57158408,9.47891086 L3.57158408,17.1551283 L6.98239983,17.1551283 L6.98239983,11.135529 C8.66072311,11.135529 10.3390464,11.135529 12.0173697,11.135529 Z M10.9648736,12.188734 L8.03489593,12.188734 L8.03489593,17.1551283 L10.9648736,17.1551283 L10.9648736,12.188734 Z M17.1556067,6.6482206 L14.9427371,6.6482206 C14.9471168,6.88395768 14.9353609,7.15590878 14.9353609,7.40479362 C14.9353609,8.86419528 17.1556067,8.86419528 17.1556067,7.40479362 L17.1556067,6.6482206 Z M13.8754886,6.6482206 L11.6699952,6.6482206 C11.6743749,6.88395768 11.662619,7.15590878 11.662619,7.40479362 C11.662619,8.86580992 13.8828648,8.86580992 13.8828648,7.40479362 C13.8828648,7.15613944 13.8708784,6.88349636 13.8754886,6.6482206 L13.8754886,6.6482206 Z M10.6027467,6.6482206 L8.39702282,6.6482206 C8.40163296,6.88349636 8.38987709,7.15613944 8.38987709,7.40479362 C8.38987709,8.86580992 10.6098924,8.86580992 10.6098924,7.40479362 C10.6098924,7.15590878 10.598367,6.88395768 10.6027467,6.6482206 Z M7.32977426,6.6482206 L5.12428091,6.6482206 C5.12889105,6.88349636 5.11690467,7.15613944 5.11690467,7.40479362 C5.11690467,8.86580992 7.33715049,8.86580992 7.33715049,7.40479362 C7.33715049,7.15590878 7.32539462,6.88395768 7.32977426,6.6482206 Z M4.05703235,6.6482206 L1.84416276,6.6482206 L1.84416276,7.40479362 C1.84416276,8.86419528 4.06440858,8.86419528 4.06440858,7.40479362 C4.06440858,7.15590878 4.05265271,6.88395768 4.05703235,6.6482206 Z M3.77696604,2.63653833 L2.19499479,5.59501561 C7.06492143,5.59501561 11.9348481,5.59501561 16.8047747,5.59501561 L15.223034,2.63653833 C11.4074475,2.63653833 7.59232201,2.63653833 3.77696604,2.63653833 Z" id="Shape"></path>
                </g>
            </g>
        </g>
    </g>
</svg>