<?xml version="1.0" encoding="UTF-8"?>
<svg width="20px" height="20px" viewBox="0 0 20 20" version="1.1" xmlns="http://www.w3.org/2000/svg" xmlns:xlink="http://www.w3.org/1999/xlink">
    <title>ic_Happiness Advisor</title>
    <g id="Page-1" stroke="none" stroke-width="1" fill="none" fill-rule="evenodd">
        <g id="Happiness-Advisor" transform="translate(-33.000000, -495.000000)" fill="#FFFFFF" fill-rule="nonzero">
            <g id="Occasions-Copy-8" transform="translate(15.000000, 484.000000)">
                <g id="ic_Happiness-Advisor" transform="translate(18.000000, 11.000000)">
                    <path d="M16.5409375,14.8851172 L13.0963281,13.9457031 L13.0963281,12.7532031 C13.3005859,12.5489844 13.5080078,12.3415625 13.7048438,12.1448047 C14.1542969,11.6952734 14.4930078,11.1646094 14.7079297,10.5859375 L15.3345703,10.5859375 C15.643125,10.5859375 15.9364844,10.5202734 16.2021484,10.4029297 C16.0410156,11.0334375 15.7147656,11.6119922 15.2447656,12.0855859 C15.0130859,12.3115234 15.0084375,12.6825 15.234375,12.9141797 C15.4603125,13.1458594 15.8312891,13.1505078 16.0629297,12.9245703 C16.9828516,12.0046875 17.4895312,10.7814844 17.4895312,9.48015625 L17.4895312,7.80335937 C17.4895312,6.70734375 16.6668359,5.80046875 15.6067187,5.66617187 L15.6067187,5.60671875 C15.6067578,2.51519531 13.0916016,0 9.99933594,0 C6.90808594,0 4.39320312,2.51492188 4.39320312,5.60617188 L4.39320312,5.66621094 C3.33304687,5.80050781 2.51039062,6.70738281 2.51039062,7.80339844 L2.51039062,8.43097656 C2.51039062,9.61921875 3.47710937,10.5859375 4.66535156,10.5859375 L5.29214844,10.5859375 C5.50714844,11.1645703 5.8459375,11.6952734 6.29550781,12.1449219 L6.90363281,12.7530469 L6.90363281,13.9456641 L3.459375,14.8851172 C1.42253906,15.4405469 0,17.3028906 0,19.4140625 C0,19.7376563 0.26234375,20 0.5859375,20 C0.90953125,20 1.171875,19.7375391 1.171875,19.4139453 C1.171875,17.8298828 2.23929687,16.4325 3.76769531,16.0157031 L6.91949219,15.1560938 C6.95078125,15.2880469 7.02730469,15.4065625 7.13804688,15.4896094 L9.41410156,17.1966406 L9.41410156,19.4140625 C9.41410156,19.7376563 9.67644531,20 10.0000391,20 C10.3236328,20 10.5859766,19.7376563 10.5859766,19.4140625 L10.5859766,17.1966016 L12.8620313,15.4895703 C12.9727734,15.4065234 13.0492969,15.2880078 13.0805859,15.1560547 L16.2326953,16.0157031 C17.7608203,16.4324609 18.828125,17.8298438 18.828125,19.4140625 C18.828125,19.7376563 19.0904688,20 19.4140625,20 C19.7376563,20 20,19.7375391 20,19.4139453 C20,17.3028516 18.5775781,15.4405078 16.5409375,14.8851172 L16.5409375,14.8851172 Z M14.9791797,9.0678125 L14.9791797,7.48960937 L14.9791797,6.8203125 L15.3346484,6.8203125 C15.8767188,6.8203125 16.3177344,7.26132812 16.3177344,7.80339844 L16.3177344,8.43097656 C16.3177344,8.97304687 15.8767188,9.4140625 15.3346484,9.4140625 L14.9791797,9.4140625 L14.9791797,9.0678125 Z M5.02082031,7.48957031 L5.02082031,9.06777344 L5.02082031,9.4140625 L4.66535156,9.4140625 C4.12328125,9.4140625 3.68226563,8.97304687 3.68226563,8.43097656 L3.68226563,7.80339844 C3.68226563,7.26132812 4.12328125,6.8203125 4.66535156,6.8203125 L5.02082031,6.8203125 L5.02082031,7.48957031 Z M10,1.171875 C12.3047656,1.171875 14.2042188,2.93917969 14.4151563,5.18972656 C13.5830469,3.59878906 11.9163672,2.51042969 10,2.51042969 C8.08359375,2.51042969 6.416875,3.59886719 5.58480469,5.18988281 C5.79535156,2.93929687 7.69476563,1.171875 10,1.171875 Z M13.7621875,6.90363281 L11.9276563,6.90363281 C11.2459375,6.90363281 10.6049609,6.638125 10.1228516,6.15617187 L8.13703125,4.17027344 C8.688125,3.85976562 9.32367188,3.68230469 10,3.68230469 C11.9001172,3.68230469 13.4795313,5.08148437 13.7621875,6.90363281 Z M7.91625,5.60675781 L7.33542969,6.18773437 C7.03007813,6.49308594 6.65796875,6.70699219 6.25214844,6.81734375 C6.383125,6.08511719 6.724375,5.42492187 7.21070313,4.90121094 C7.39527344,5.08578125 7.64226563,5.33277344 7.91625,5.60675781 Z M11.9244922,14.7278516 L10,16.1712109 L8.07550781,14.7278516 L8.07550781,13.7971875 C8.64660156,14.1576562 9.30828125,14.3515625 10.0002734,14.3515625 C10.6919531,14.3515625 11.3534375,14.1577344 11.9244531,13.7973828 L11.9244531,14.7278516 L11.9244922,14.7278516 Z M12.87625,11.3161328 L11.7286328,12.4637891 C11.2669922,12.9254687 10.6531641,13.1796875 10,13.1796875 C9.34714844,13.1796875 8.73335938,12.9254297 8.27164062,12.46375 L7.12414062,11.31625 C6.52347656,10.7155078 6.19269531,9.91699219 6.19269531,9.06777344 L6.19269531,8.02773437 C6.9359375,7.90738281 7.62121094,7.55921875 8.16410156,7.01640625 L8.74488281,6.43542969 L9.29421875,6.98488281 C9.99777344,7.68820312 10.9330078,8.07554687 11.9276562,8.07554687 L13.8072656,8.07554687 L13.8072656,9.0678125 C13.8072656,9.9171875 13.4766016,10.7157031 12.87625,11.3161328 L12.87625,11.3161328 Z" id="Shape"></path>
                    <path d="M15.0208203,18.828125 L13.1380078,18.828125 C12.8144141,18.828125 12.5520703,19.0904687 12.5520703,19.4140625 C12.5520703,19.7376563 12.8144141,20 13.1380078,20 L15.0208203,20 C15.3444141,20 15.6067578,19.7376563 15.6067578,19.4140625 C15.6067578,19.0904687 15.3444141,18.828125 15.0208203,18.828125 Z" id="Path"></path>
                </g>
            </g>
        </g>
    </g>
</svg>